<?xml version="1.0" encoding="UTF-8"?>
<svg id="Layer_1" data-name="Layer 1" xmlns="http://www.w3.org/2000/svg" viewBox="0 0 310.03 37.25">
  <path d="M7.71,28.81L0,.38h4.58l4.1,16.3c.25,1,.49,2.05.71,3.13.22,1.08.43,2.18.64,3.28s.41,2.21.6,3.32h-.65c.2-1.11.41-2.21.63-3.32.22-1.11.44-2.2.67-3.28.23-1.08.48-2.12.74-3.13L16.24.38h4.77l4.18,16.3c.27,1,.52,2.05.74,3.13.23,1.08.46,2.18.68,3.28s.44,2.21.64,3.32h-.69c.2-1.11.41-2.21.61-3.32.2-1.11.42-2.2.66-3.28.23-1.08.47-2.12.7-3.13L32.63.38h4.62l-7.75,28.43h-5.02l-4.52-16.85c-.34-1.32-.66-2.76-.95-4.31-.29-1.55-.59-3.26-.9-5.11h.99c-.32,1.78-.61,3.43-.87,4.94s-.59,3.01-.98,4.48l-4.5,16.85h-5.04Z"/>
  <path d="M50.83,29.29c-2.12,0-3.97-.34-5.53-1.01s-2.79-1.64-3.67-2.89c-.88-1.25-1.37-2.75-1.46-4.47h4.37c.09,1.03.42,1.88,1,2.56.58.67,1.33,1.18,2.26,1.51.93.33,1.93.5,3.01.5,1.21,0,2.28-.19,3.21-.56.94-.38,1.68-.91,2.22-1.6s.82-1.5.82-2.41c0-.83-.24-1.5-.72-2.03-.48-.53-1.12-.97-1.93-1.32-.81-.35-1.73-.66-2.76-.93l-3.32-.92c-2.33-.62-4.14-1.54-5.45-2.77-1.3-1.22-1.96-2.8-1.96-4.75,0-1.64.44-3.08,1.33-4.3s2.09-2.18,3.61-2.86,3.23-1.02,5.14-1.02,3.66.34,5.14,1.02c1.48.68,2.65,1.61,3.49,2.8.85,1.18,1.29,2.53,1.33,4.04h-4.24c-.14-1.3-.74-2.3-1.8-3.01-1.06-.71-2.4-1.07-4.02-1.07-1.14,0-2.14.18-2.99.54-.85.36-1.5.85-1.96,1.48-.46.63-.7,1.34-.7,2.15,0,.9.28,1.63.83,2.18.55.55,1.23.99,2.02,1.32.79.33,1.55.58,2.28.77l2.77.72c.9.23,1.83.54,2.79.93.96.39,1.85.89,2.66,1.51s1.47,1.38,1.98,2.29c.5.91.75,2.01.75,3.29,0,1.6-.41,3.03-1.24,4.29-.83,1.26-2.03,2.25-3.6,2.97-1.57.72-3.47,1.08-5.7,1.08Z"/>
  <path d="M78.39,29.19c-2.46,0-4.65-.58-6.59-1.75-1.94-1.16-3.47-2.84-4.58-5.02-1.11-2.18-1.67-4.79-1.67-7.81s.56-5.65,1.67-7.83c1.11-2.18,2.64-3.86,4.58-5.03,1.94-1.17,4.14-1.75,6.59-1.75s4.65.58,6.57,1.75c1.93,1.17,3.45,2.85,4.56,5.03s1.67,4.79,1.67,7.83-.56,5.63-1.67,7.81-2.63,3.85-4.56,5.02c-1.93,1.16-4.12,1.75-6.57,1.75ZM78.39,25.23c1.62,0,3.06-.4,4.34-1.21s2.29-2,3.03-3.59c.74-1.58,1.12-3.52,1.12-5.81s-.37-4.26-1.12-5.85-1.76-2.78-3.03-3.59-2.73-1.21-4.34-1.21-3.08.41-4.37,1.22c-1.28.81-2.3,2.01-3.04,3.6-.74,1.58-1.12,3.53-1.12,5.83s.37,4.22,1.12,5.8,1.76,2.77,3.04,3.59c1.29.81,2.74,1.22,4.37,1.22Z"/>
  <path d="M96.09,28.81v-3.15l9.66-9.98c.99-1.04,1.82-1.97,2.48-2.77.66-.8,1.16-1.57,1.51-2.31.34-.74.52-1.53.52-2.37,0-.95-.22-1.78-.66-2.46-.44-.69-1.04-1.21-1.79-1.58-.76-.37-1.62-.55-2.59-.55s-1.88.21-2.63.62c-.75.41-1.33,1-1.74,1.75-.41.75-.61,1.63-.61,2.65h-4.18c0-1.73.4-3.25,1.2-4.55.8-1.3,1.89-2.31,3.28-3.03s2.97-1.08,4.75-1.08,3.39.36,4.76,1.07c1.37.71,2.44,1.68,3.21,2.89.78,1.21,1.16,2.59,1.16,4.13,0,1.04-.19,2.06-.58,3.05-.39.99-1.07,2.11-2.04,3.36-.97,1.25-2.34,2.76-4.11,4.54l-5.57,5.82v.23h12.75v3.72h-18.78Z"/>
  <path d="M135.34.38v28.43h-4.35V.38h4.35Z"/>
  <path d="M145.51,16.18v12.63h-4.2V7.48h4.01l.04,5.23h-.44c.62-1.91,1.53-3.3,2.71-4.18,1.18-.88,2.61-1.32,4.29-1.32,1.45,0,2.72.3,3.8.92,1.08.61,1.93,1.51,2.54,2.7.61,1.19.92,2.67.92,4.44v13.55h-4.2v-13.03c0-1.54-.4-2.74-1.2-3.61s-1.9-1.3-3.3-1.3c-.94,0-1.79.21-2.54.62-.75.41-1.34,1.01-1.77,1.8-.43.79-.65,1.75-.65,2.88Z"/>
  <path d="M173.95,7.48v3.42h-11.56v-3.42h11.56ZM165.49,2.4h4.2v20.65c0,.85.18,1.48.54,1.88.36.4.96.6,1.78.6.22,0,.5-.03.86-.08.36-.05.66-.1.92-.15l.74,3.36c-.45.15-.92.26-1.43.33-.51.07-1.01.1-1.51.1-1.93,0-3.43-.5-4.5-1.5-1.07-1-1.6-2.4-1.6-4.21V2.4Z"/>
  <path d="M186.94,29.25c-2.1,0-3.91-.45-5.44-1.35s-2.7-2.17-3.52-3.82c-.82-1.64-1.23-3.57-1.23-5.78s.4-4.12,1.21-5.78c.81-1.67,1.95-2.97,3.42-3.9,1.48-.94,3.21-1.4,5.19-1.4,1.22,0,2.4.2,3.53.6,1.13.4,2.15,1.03,3.05,1.88.9.85,1.62,1.96,2.15,3.31.53,1.35.79,3,.79,4.93v1.49h-17v-3.13h14.85l-1.97,1.03c0-1.31-.2-2.46-.61-3.46s-1.01-1.78-1.8-2.34c-.79-.56-1.79-.84-2.99-.84s-2.2.29-3.03.86c-.84.57-1.48,1.33-1.92,2.26-.44.94-.66,1.96-.66,3.06v2.14c0,1.46.25,2.7.75,3.71.5,1.01,1.21,1.77,2.11,2.29.9.51,1.95.77,3.15.77.79,0,1.5-.11,2.14-.33.64-.22,1.19-.56,1.65-1.01.46-.45.82-1.01,1.06-1.67l3.95.93c-.34,1.09-.92,2.06-1.73,2.9-.81.84-1.81,1.49-3.01,1.96-1.2.46-2.57.7-4.09.7Z"/>
  <path d="M209.61,37.25c-1.64,0-3.07-.21-4.27-.63-1.21-.42-2.2-.98-2.99-1.68s-1.38-1.48-1.78-2.33l3.51-1.66c.25.41.59.84,1.02,1.29.43.45,1,.84,1.73,1.15.72.32,1.65.48,2.79.48,1.63,0,2.95-.38,3.96-1.15s1.52-1.98,1.52-3.62v-4.16h-.36c-.25.47-.61.98-1.06,1.53-.45.55-1.08,1.02-1.89,1.42-.81.4-1.86.6-3.16.6-1.68,0-3.19-.39-4.53-1.18-1.34-.79-2.41-1.96-3.2-3.51-.79-1.55-1.18-3.46-1.18-5.72s.39-4.21,1.17-5.83c.78-1.62,1.85-2.87,3.21-3.73s2.88-1.3,4.59-1.3c1.31,0,2.38.22,3.2.65s1.46.94,1.93,1.54c.46.59.82,1.11,1.06,1.55h.31v-3.47h4.1v21.64c0,1.87-.42,3.41-1.27,4.61s-2,2.09-3.45,2.66c-1.46.57-3.1.86-4.93.86ZM209.59,25c1.2,0,2.2-.28,3.02-.83.82-.55,1.44-1.35,1.86-2.4.42-1.05.63-2.3.63-3.75s-.21-2.7-.63-3.78-1.04-1.93-1.86-2.54-1.83-.92-3.02-.92-2.26.32-3.09.96c-.83.64-1.45,1.51-1.87,2.59-.42,1.09-.63,2.31-.63,3.67s.21,2.6.63,3.65c.42,1.05,1.05,1.87,1.88,2.45.83.59,1.86.88,3.08.88Z"/>
  <path d="M224.91,28.81V7.48h4.06v3.43h.23c.39-1.17,1.08-2.09,2.06-2.75.98-.66,2.09-.99,3.34-.99.27,0,.57,0,.92.03.34.02.63.05.86.09v4.01c-.15-.05-.45-.1-.88-.15s-.87-.08-1.32-.08c-.97,0-1.84.2-2.61.61-.78.41-1.38.97-1.81,1.69-.43.72-.65,1.55-.65,2.49v12.96h-4.2Z"/>
  <path d="M245.83,29.29c-1.35,0-2.57-.25-3.66-.75-1.09-.5-1.96-1.24-2.59-2.2-.64-.97-.95-2.15-.95-3.55,0-1.21.23-2.2.7-2.98.46-.78,1.09-1.39,1.89-1.85s1.68-.8,2.65-1.03c.97-.23,1.96-.4,2.97-.52,1.26-.15,2.28-.28,3.07-.37.79-.09,1.37-.25,1.75-.48s.56-.58.56-1.08v-.11c0-.8-.15-1.48-.46-2.02-.31-.55-.76-.97-1.36-1.27-.6-.3-1.36-.45-2.26-.45s-1.73.14-2.39.43-1.21.65-1.62,1.1-.72.91-.92,1.39l-3.95-1.03c.48-1.27,1.18-2.3,2.08-3.07.9-.78,1.94-1.34,3.11-1.7,1.17-.36,2.38-.53,3.62-.53.87,0,1.78.1,2.75.3.97.2,1.88.57,2.73,1.11.85.54,1.55,1.29,2.08,2.25s.8,2.23.8,3.78v14.16h-4.06v-2.92h-.21c-.28.55-.69,1.08-1.24,1.6-.55.52-1.24.95-2.07,1.29-.83.34-1.83.5-2.99.5ZM246.76,25.91c1.14,0,2.12-.22,2.94-.67s1.44-1.04,1.87-1.77c.43-.74.65-1.52.65-2.35v-2.73c-.15.15-.44.29-.87.41-.43.12-.91.23-1.46.32-.55.09-1.07.17-1.58.24s-.93.11-1.26.15c-.79.1-1.51.27-2.17.52-.66.24-1.18.58-1.56,1.03s-.58,1.04-.58,1.77c0,.67.17,1.24.53,1.7.35.46.82.8,1.42,1.03.6.23,1.29.34,2.08.34Z"/>
  <path d="M271.17,7.48v3.42h-11.56v-3.42h11.56ZM262.71,2.4h4.2v20.65c0,.85.18,1.48.54,1.88.36.4.96.6,1.78.6.22,0,.5-.03.86-.08.36-.05.66-.1.92-.15l.74,3.36c-.45.15-.92.26-1.43.33-.51.07-1.01.1-1.51.1-1.93,0-3.43-.5-4.5-1.5-1.07-1-1.6-2.4-1.6-4.21V2.4Z"/>
  <path d="M283.93,29.25c-2,0-3.74-.46-5.24-1.37-1.5-.92-2.66-2.2-3.48-3.85-.83-1.65-1.24-3.58-1.24-5.76s.41-4.15,1.24-5.81c.83-1.66,1.99-2.95,3.48-3.86,1.49-.92,3.24-1.37,5.24-1.37s3.76.46,5.26,1.37c1.5.92,2.66,2.2,3.48,3.86s1.24,3.6,1.24,5.81-.41,4.11-1.24,5.76c-.83,1.65-1.99,2.94-3.48,3.85-1.49.92-3.25,1.37-5.26,1.37ZM283.93,25.7c1.3,0,2.37-.34,3.22-1.02.85-.68,1.48-1.58,1.89-2.71s.62-2.36.62-3.71-.21-2.61-.62-3.75c-.41-1.14-1.04-2.05-1.89-2.73-.85-.68-1.92-1.02-3.22-1.02s-2.35.34-3.19,1.02-1.47,1.59-1.88,2.72c-.41,1.13-.62,2.38-.62,3.76s.21,2.58.62,3.71c.41,1.13,1.04,2.03,1.88,2.71s1.9,1.02,3.19,1.02Z"/>
  <path d="M298.57,28.81V7.48h4.06v3.43h.23c.39-1.17,1.08-2.09,2.06-2.75.98-.66,2.09-.99,3.34-.99.27,0,.57,0,.92.03.34.02.63.05.86.09v4.01c-.15-.05-.45-.1-.88-.15s-.87-.08-1.32-.08c-.97,0-1.84.2-2.61.61-.78.41-1.38.97-1.81,1.69-.43.72-.65,1.55-.65,2.49v12.96h-4.2Z"/>
</svg>